<?xml version="1.0" encoding="UTF-8"?>
<svg width="25px" height="23px" viewBox="0 0 25 23" version="1.1" xmlns="http://www.w3.org/2000/svg" xmlns:xlink="http://www.w3.org/1999/xlink">
    <!-- Generator: sketchtool 54.1 (76490) - https://sketchapp.com -->
    <title>0BD61FC0-C6B3-4877-9FE0-E989921965C1</title>
    <desc>Created with sketchtool.</desc>
    <g id="Page-1" stroke="none" stroke-width="1" fill="none" fill-rule="evenodd">
        <g id="mobile-home-slide2" transform="translate(-327.000000, -28.000000)" stroke="#4D4D4F" stroke-width="1.43999983">
            <g id="nav" transform="translate(0.000000, 15.000000)">
                <g id="Group" transform="translate(23.000000, 0.000000)">
                    <g id="bag-icon" transform="translate(304.000000, 14.000000)">
                        <path d="M7.5,8 C7.5,2.66666667 9.16666667,0 12.5,0 C15.8333333,0 17.5,2.66666667 17.5,8" id="Line-3" stroke-linecap="round"></path>
                        <path d="M3.61997747,3.71999991 C3.49920623,3.71999991 3.39724743,3.80974342 3.38191854,3.9295379 L1.19636457,21.0095381 C1.19507185,21.0196407 1.19442353,21.0298152 1.19442353,21.0400001 C1.19442353,21.1725484 1.30187517,21.2800001 1.4344235,21.2800001 L23.5654542,21.2800001 C23.5756391,21.2800001 23.5858137,21.2793518 23.5959162,21.278059 C23.7273925,21.2612354 23.8203368,21.1410144 23.8035131,21.0095381 L21.6179592,3.9295379 C21.6026303,3.80974342 21.5006715,3.71999991 21.3799002,3.71999991 L3.61997747,3.71999991 Z" id="Rectangle"></path>
                    </g>
                </g>
            </g>
        </g>
    </g>
</svg>