<?xml version="1.0" encoding="UTF-8"?>
<svg width="34px" height="34px" viewBox="0 0 34 34" version="1.1" xmlns="http://www.w3.org/2000/svg" xmlns:xlink="http://www.w3.org/1999/xlink">
    <!-- Generator: sketchtool 54.1 (76490) - https://sketchapp.com -->
    <title>D9F9B987-0B83-4AB8-BB80-95448872A769</title>
    <desc>Created with sketchtool.</desc>
    <g id="Page-1" stroke="none" stroke-width="1" fill="none" fill-rule="evenodd">
        <g id="about" transform="translate(-703.000000, -3206.000000)" fill="#B9BFC9" fill-rule="nonzero">
            <g id="footer" transform="translate(0.000000, 3161.000000)">
                <g id="instagram-icon" transform="translate(703.000000, 45.000000)">
                    <path d="M24.4812,3.51718654e-13 L9.3308,3.51718654e-13 C4.1858,3.51718654e-13 1.0658141e-14,4.186 1.0658141e-14,9.331 L1.0658141e-14,24.4814 C1.0658141e-14,29.6266 4.1858,33.8124 9.3308,33.8124 L24.4812,33.8124 C29.6266,33.8124 33.8124,29.6264 33.8124,24.4814 L33.8124,9.331 C33.8126,4.186 29.6266,3.51718654e-13 24.4812,3.51718654e-13 Z M30.8126,24.4814 C30.8126,27.9724 27.9724,30.8124 24.4814,30.8124 L9.3308,30.8124 C5.84,30.8126 3,27.9724 3,24.4814 L3,9.331 C3,5.8402 5.84,3 9.3308,3 L24.4812,3 C27.9722,3 30.8124,5.8402 30.8124,9.331 L30.8124,24.4814 L30.8126,24.4814 Z" id="Shape"></path>
                    <path d="M16.9062,8.194 C12.102,8.194 8.1936,12.1024 8.1936,16.9066 C8.1936,21.7106 12.102,25.6188 16.9062,25.6188 C21.7104,25.6188 25.6188,21.7106 25.6188,16.9066 C25.6188,12.1024 21.7104,8.194 16.9062,8.194 Z M16.9062,22.6186 C13.7564,22.6186 11.1936,20.0562 11.1936,16.9064 C11.1936,13.7564 13.7562,11.1938 16.9062,11.1938 C20.0562,11.1938 22.6188,13.7564 22.6188,16.9064 C22.6188,20.0562 20.056,22.6186 16.9062,22.6186 Z" id="Shape"></path>
                    <path d="M25.9842,5.6502 C25.4062,5.6502 24.8384,5.8842 24.4302,6.2942 C24.02,6.7022 23.7842,7.2702 23.7842,7.8502 C23.7842,8.4284 24.0202,8.9962 24.4302,9.4062 C24.8382,9.8142 25.4062,10.0502 25.9842,10.0502 C26.5642,10.0502 27.1302,9.8142 27.5402,9.4062 C27.9502,8.9962 28.1842,8.4282 28.1842,7.8502 C28.1842,7.2702 27.9502,6.7022 27.5402,6.2942 C27.1322,5.8842 26.5642,5.6502 25.9842,5.6502 Z" id="Path"></path>
                </g>
            </g>
        </g>
    </g>
</svg>