<?xml version="1.0" encoding="UTF-8"?>
<svg width="118px" height="115px" viewBox="0 0 118 115" version="1.1" xmlns="http://www.w3.org/2000/svg" xmlns:xlink="http://www.w3.org/1999/xlink">
    <!-- Generator: sketchtool 54.1 (76490) - https://sketchapp.com -->
    <title>27CF25AA-AF53-4494-8DC4-33571C67F532</title>
    <desc>Created with sketchtool.</desc>
    <g id="Page-1" stroke="none" stroke-width="1" fill="none" fill-rule="evenodd">
        <g id="mobile-home-slide2" transform="translate(-134.000000, -1265.000000)" fill-rule="nonzero">
            <g id="effective-icon" transform="translate(134.000000, 1265.000000)">
                <path d="M104,1 L104,1 C97.6643519,1 92.5532407,6.16435185 92.5,12.5 L92.5,12.5 C92.5,18.8356481 97.6643519,23.9467593 104,24 L104,24 C110.335648,24 115.446759,18.8356481 115.5,12.5 L115.5,12.5 C115.5,6.16435185 110.335648,1 104,1 Z" id="Path"></path>
                <path d="M104,47 L104,47 C97.6643519,47 92.5532407,52.1643519 92.5,58.5 L92.5,58.5 C92.5,64.8356481 97.6643519,69.9467593 104,70 L104,70 C110.335648,70 115.446759,64.8356481 115.5,58.5 L115.5,58.5 C115.5,52.1643519 110.335648,47 104,47 Z" id="Path"></path>
                <path d="M104,91 L104,91 C97.6643519,91 92.5532407,96.1643519 92.5,102.5 L92.5,102.5 C92.5,108.835648 97.6643519,113.946759 104,114 L104,114 C110.335648,114 115.446759,108.835648 115.5,102.5 L115.5,102.5 C115.5,96.1643519 110.335648,91.0532407 104,91 Z" id="Path"></path>
                <path d="M104.5,26 C97.3257261,26 91.5,20.1742739 91.5,13 C91.5,5.82572614 97.3257261,0 104.5,0 C111.674274,0 117.5,5.82572614 117.5,13 C117.5,13 117.5,13 117.5,13 C117.5,20.2282158 111.674274,26 104.5,26 Z M104.5,2.75103734 C98.8360996,2.75103734 94.1970954,7.33609959 94.1970954,13.0539419 C94.1970954,18.7717842 98.7821577,23.3568465 104.5,23.3568465 C110.217842,23.3568465 114.802905,18.7717842 114.802905,13.0539419 C114.802905,13.0539419 114.802905,13.0539419 114.802905,13.0539419 C114.802905,7.33609959 110.217842,2.75103734 104.5,2.75103734 Z" id="Shape" fill="#939598"></path>
                <path d="M102.599537,17 C102.243056,17 101.9375,16.830721 101.68287,16.6050157 L98.8819444,13.5015674 C98.3726852,12.9373041 98.3726852,12.0344828 98.8819444,11.5266458 C99.3912037,11.0188088 100.206019,10.9623824 100.664352,11.5266458 C100.664352,11.5266458 100.664352,11.5266458 100.664352,11.5266458 L102.599537,13.6708464 L107.335648,8.42319749 C107.844907,7.85893417 108.659722,7.85893417 109.118056,8.42319749 C109.627315,8.98746082 109.627315,9.89028213 109.118056,10.3981191 C109.118056,10.3981191 109.118056,10.3981191 109.118056,10.3981191 L103.465278,16.661442 C103.261574,16.830721 102.956019,17 102.599537,17 Z" id="Path" fill="#939598"></path>
                <path d="M104.5,71 C97.3257261,71 91.5,65.1742739 91.5,58 C91.5,50.8257261 97.3257261,45 104.5,45 C111.674274,45 117.5,50.8257261 117.5,58 C117.5,58 117.5,58 117.5,58 C117.5,65.1742739 111.674274,71 104.5,71 Z M104.5,47.6970954 C98.8360996,47.6970954 94.1970954,52.2821577 94.1970954,58 C94.1970954,63.7178423 98.7821577,68.3029046 104.5,68.3029046 C110.217842,68.3029046 114.802905,63.7178423 114.802905,58 C114.802905,58 114.802905,58 114.802905,58 C114.802905,52.3360996 110.217842,47.6970954 104.5,47.6970954 Z" id="Shape" fill="#939598"></path>
                <path d="M102.599537,63 C102.243056,63 101.9375,62.830721 101.68287,62.6050157 L98.8819444,59.5015674 C98.3726852,58.9373041 98.3726852,58.0344828 98.8819444,57.5266458 C99.3912037,56.9623824 100.206019,56.9623824 100.664352,57.5266458 C100.664352,57.5266458 100.664352,57.5266458 100.664352,57.5266458 L102.599537,59.6708464 L107.335648,54.4231975 C107.844907,53.8589342 108.659722,53.8589342 109.118056,54.4231975 C109.627315,54.9874608 109.627315,55.8338558 109.118056,56.3981191 L103.465278,62.661442 C103.261574,62.830721 102.956019,63 102.599537,63 Z" id="Path" fill="#939598"></path>
                <path d="M104.5,115 C97.3257261,115 91.5,109.174274 91.5,102 C91.5,94.8257261 97.3257261,89 104.5,89 C111.674274,89 117.5,94.8257261 117.5,102 C117.5,102 117.5,102 117.5,102 C117.5,109.174274 111.674274,115 104.5,115 Z M104.5,91.6970954 C98.8360996,91.6970954 94.1970954,96.2821577 94.1970954,102 C94.1970954,107.717842 98.7821577,112.302905 104.5,112.302905 C110.217842,112.302905 114.802905,107.717842 114.802905,102 C114.802905,102 114.802905,102 114.802905,102 C114.802905,96.3360996 110.217842,91.7510373 104.5,91.6970954 L104.5,91.6970954 Z" id="Shape" fill="#939598"></path>
                <path d="M102.599537,107 C102.243056,107 101.9375,106.830721 101.68287,106.605016 L98.8819444,103.501567 C98.3726852,102.937304 98.3726852,102.034483 98.8819444,101.526646 C99.3912037,100.962382 100.206019,100.962382 100.664352,101.526646 C100.664352,101.526646 100.664352,101.526646 100.664352,101.526646 L102.599537,103.670846 L107.335648,98.4231975 C107.844907,97.8589342 108.659722,97.8589342 109.118056,98.4231975 C109.627315,98.9874608 109.627315,99.8338558 109.118056,100.398119 L103.465278,106.661442 C103.261574,106.887147 102.956019,107 102.599537,107 Z" id="Path" fill="#939598"></path>
                <path d="M84.703125,60 L65.296875,60 C64.290625,60 63.5,59.34 63.5,58.5 C63.5,57.66 64.290625,57 65.296875,57 L84.703125,57 C85.709375,57 86.5,57.66 86.5,58.5 C86.5,59.34 85.709375,60 84.703125,60 Z" id="Path" fill="#939598"></path>
                <path d="M59.8808487,36 C59.1075734,36 58.5,35.3938036 58.5,34.6222809 C58.5,34.0711933 58.8314037,33.5752145 59.3285092,33.3547794 L88.5472684,20.1286764 C89.2653097,19.7980238 90.038585,20.1286764 90.3699887,20.8450903 C90.7013924,21.5063955 90.3699887,22.3330269 89.7071813,22.6636795 L60.4884222,35.8897825 C60.2674864,35.9448912 60.0465506,36 59.8808487,36 Z" id="Path" fill="#939598"></path>
                <path d="M89.0699548,95 C88.8458017,95 88.6776868,94.9509381 88.5095719,94.9018762 L59.313624,83.3232687 C58.5851263,83.0288973 58.3049348,82.2929688 58.6411646,81.7042261 C58.9773943,81.1154833 59.7619303,80.8211119 60.4904281,81.1154833 L89.686376,92.6940909 C90.4148737,92.9884622 90.6950652,93.6753288 90.3588354,94.3131335 C90.1346823,94.7546905 89.6303377,95 89.0699548,95 L89.0699548,95 Z" id="Path" fill="#939598"></path>
                <path d="M26.2795276,67 L19.7795276,67 C19.0629921,67 18.5,66.4453782 18.5,65.7394958 L18.5,50.2605042 C18.5,49.5546218 19.0629921,49 19.7795276,49 L26.2795276,49 C29.1456693,49 31.5,51.2689076 31.5,54.1428571 C31.5,55.605042 30.8346457,57.0168067 29.7086614,58.0252101 C31.8582677,59.8907563 32.1141732,63.1176471 30.2204724,65.2352941 C29.1968504,66.394958 27.7637795,67 26.2795276,67 L26.2795276,67 Z M21.0590551,64.4789916 L26.2795276,64.4789916 C27.7637795,64.4789916 28.9409449,63.3193277 28.9409449,61.8571429 C28.9409449,60.394958 27.7637795,59.2352941 26.2795276,59.2352941 L21.0590551,59.2352941 L21.0590551,64.4789916 Z M21.0590551,56.7647059 L26.2795276,56.7647059 C27.7637795,56.7647059 28.9409449,55.605042 28.9409449,54.1428571 C28.9409449,52.6806723 27.7637795,51.5210084 26.2795276,51.5210084 L21.0590551,51.5210084 L21.0590551,56.7647059 Z" id="Shape" fill="#939598"></path>
                <path d="M12.215415,67 L9.64624506,67 C4.55928854,67 0.5,62.9550562 0.5,58 C0.5,52.994382 4.61067194,49 9.64624506,49 C9.64624506,49 9.64624506,49 9.64624506,49 L12.215415,49 C12.9347826,49 13.5,49.5561798 13.5,50.2640449 C13.5,50.9719101 12.9347826,51.5280899 12.215415,51.5280899 L9.64624506,51.5280899 C5.99802372,51.5280899 3.06916996,54.4101124 3.06916996,58 C3.06916996,61.5898876 5.99802372,64.4719101 9.64624506,64.4719101 C9.64624506,64.4719101 9.64624506,64.4719101 9.64624506,64.4719101 L12.215415,64.4719101 C12.9347826,64.4719101 13.5,65.0280899 13.5,65.7359551 C13.5,66.4438202 12.8833992,67 12.215415,67 Z" id="Path" fill="#939598"></path>
                <path d="M39.3537549,67 L36.784585,67 C36.0652174,67 35.5,66.4453782 35.5,65.7394958 L35.5,50.2605042 C35.5,49.5546218 36.0652174,49 36.784585,49 L39.3537549,49 C44.4407115,49 48.5,53.0336134 48.5,57.9747899 C48.5,62.9159664 44.3893281,67 39.3537549,67 Z M38.06917,64.4789916 L39.3537549,64.4789916 C43.0019763,64.4789916 45.93083,61.605042 45.93083,58.0252101 C45.93083,54.4453782 43.0019763,51.5714286 39.3537549,51.5714286 C39.3537549,51.5714286 39.3537549,51.5714286 39.3537549,51.5714286 L38.06917,51.5714286 L38.06917,64.4789916 Z" id="Shape" fill="#939598"></path>
            </g>
        </g>
    </g>
</svg>