<?xml version="1.0" encoding="UTF-8"?>
<svg width="326px" height="101px" viewBox="0 0 326 101" version="1.1" xmlns="http://www.w3.org/2000/svg" xmlns:xlink="http://www.w3.org/1999/xlink">
    <!-- Generator: sketchtool 54.1 (76490) - https://sketchapp.com -->
    <title>61CF5AE5-6D26-4A9A-BB72-013482304B78</title>
    <desc>Created with sketchtool.</desc>
    <defs>
        <polygon id="path-1" points="0.06551875 0.206307692 43.658175 0.206307692 43.658175 54 0.06551875 54"></polygon>
    </defs>
    <g id="Page-1" stroke="none" stroke-width="1" fill="none" fill-rule="evenodd">
        <g id="mobile-home-slide2" transform="translate(-25.000000, -904.000000)">
            <g id="the-upside-is-whats-inside-mobile" transform="translate(-55.000000, 906.000000)">
                <text id="the" font-family="Superclarendon-Bold, Superclarendon" font-size="31" font-weight="bold" line-spacing="31" fill="#808183">
                    <tspan x="85.7195" y="32.6212006">the                     </tspan>
                </text>
                <path d="M292.80908,15.6835342 L294.755248,15.6835342 L294.755248,24.2844954 L292.340074,24.2844954 C291.534318,20.5648059 289.41995,17.900939 285.426066,17.900939 C282.30459,17.900939 281.028431,18.7221738 281.028431,20.9736488 C281.028431,26.0951867 296,22.271512 296,31.7962736 C296,37.223024 291.835124,39 287.135636,39 C284.619612,39 282.10254,37.9054935 280.156372,36.3024177 L279.415872,38.3146913 L277.134351,38.3146913 L277.134351,29.064976 L279.616875,29.064976 C280.087975,33.6399704 282.840597,36.0979963 287.606388,36.0979963 C290.562106,36.0979963 291.970522,34.6982773 291.970522,33.058647 C291.970522,27.2226987 277,31.6248577 277,21.8623142 C277,17.0470536 281.262935,15 285.324866,15 C287.876136,15 290.024354,16.1935231 291.703565,17.3905952 L292.80908,15.6835342 Z" id="Fill-1" fill="#59853B"></path>
                <path d="M301,38 L301,35.4342256 L302.695759,35.4342256 C304.087748,35.4342256 304.626571,35.086544 304.626571,34.1830769 L304.626571,19.1281774 C304.626571,18.2604162 304.220604,17.5661351 302.898391,17.5661351 L301,17.5661351 L301,15 L313,15 L313,17.5661351 L311.507929,17.5661351 C310.424292,17.5661351 309.373429,17.9141773 309.373429,19.2327704 L309.373429,33.7329664 C309.373429,34.8430948 309.88124,35.4342256 311.032538,35.4342256 L313,35.4342256 L313,38 L301,38 Z" id="Fill-3" fill="#59853B"></path>
                <path d="M325.088048,35.4340646 L329.113521,35.4340646 C332.911952,35.4340646 335.860766,33.317186 335.860766,26.4828673 C335.860766,19.64927 332.911952,17.5680995 329.442679,17.5680995 L325.088048,17.5680995 L325.088048,35.4340646 Z M317,35.4340646 L319.095792,35.4340646 C319.848398,35.4340646 320.502971,35.1570562 320.502971,34.2560572 L320.502971,18.7461069 C320.502971,17.8436652 319.848398,17.5680995 319.095792,17.5680995 L317,17.5680995 L317,15 L330.063554,15 C336.643326,15 341,18.8849719 341,26.4828673 C341,34.0804021 336.643326,38 330.063554,38 L317,38 L317,35.4340646 Z" id="Fill-5" fill="#59853B"></path>
                <path d="M344,38 L344,35.4342256 L345.86813,35.4342256 C346.99989,35.4342256 347.634035,35.086544 347.634035,33.0047827 L347.634035,19.5094008 C347.634035,18.0162456 347.234835,17.5661351 345.500811,17.5661351 L344,17.5661351 L344,15 L366,15 L366,24.1587399 L363.531684,24.1587399 C363.031991,19.4405137 362.632791,17.5661351 358.167436,17.5661351 L352.297951,17.5661351 L352.297951,24.7823305 L354.065935,24.7823305 C356.066439,24.7823305 356.965678,23.7410892 356.965678,20.9311443 L356.965678,20.479591 L359.433994,20.479591 L359.433994,32.0674131 L356.965678,32.0674131 L356.965678,31.2360791 C356.965678,28.4257735 356.066439,27.3502689 354.065935,27.3502689 L352.297951,27.3502689 L352.297951,35.4342256 L358.966182,35.4342256 C362.032605,35.4342256 363.234709,33.4570573 363.531684,28.2869173 L366,28.2869173 L366,38 L344,38 Z" id="Fill-7" fill="#59853B"></path>
                <path d="M211.461903,41.8519297 L211.461903,35.8008352 L211.308737,35.8008352 C208.155183,41.3921534 203.385608,43 198.309357,43 C191.154477,43 187.000677,39.3995611 187.000677,32.2771399 L187.000677,14.1200878 C187.000677,11.8986351 186.078225,11.0554835 183.923532,11.0554835 L180,11.0554835 L180,6 L196.07618,6 L196.07618,31.4329605 C196.07618,34.6503667 198.229835,37.0263343 201.99951,37.0263343 C208.539307,37.0263343 211.461903,30.8200396 211.461903,27.1428571 L211.461903,14.1200878 C211.461903,11.9753787 210.154289,11.0554835 207.692574,11.0554835 L203.538428,11.0554835 L203.538428,6 L220.537405,6 L220.537405,33.7311567 C220.537405,35.9539798 221.461586,36.7954183 224.923547,36.7954183 L228,36.7954183 L228,41.8519297 L211.461903,41.8519297 Z" id="Fill-9" fill="#F05B24"></path>
                <g id="Group-13" transform="translate(227.000000, 5.000000)">
                    <mask id="mask-2" fill="white">
                        <use xlink:href="#path-1"></use>
                    </mask>
                    <g id="Clip-12"></g>
                    <path d="M16.5847687,19.4786308 C16.5847687,28.3782462 20.4076125,32.7159 25.5336125,32.7159 C29.8923625,32.7159 33.4103,28.1487462 33.4103,19.4786308 C33.4103,9.57136154 29.740425,6.24170769 25.5336125,6.24170769 C20.4076125,6.24170769 16.5847687,10.5779769 16.5847687,19.4786308 L16.5847687,19.4786308 Z M16.3568625,7.71251538 L16.5077687,7.71251538 C19.5674875,2.45063077 23.4680187,0.206169231 28.5170187,0.206169231 C39.1464562,0.206169231 43.658175,9.95870769 43.658175,19.4786308 C43.658175,28.9989 39.1464562,38.7514385 28.5170187,38.7514385 C22.472175,38.7514385 18.2670812,34.9582846 16.6617687,32.0966308 L16.4338625,32.0966308 L16.4338625,45.4841308 C16.4338625,47.8078615 17.1199875,48.8902846 19.4904875,48.8902846 L24.3084875,48.8902846 L24.3084875,54.0002077 L0.06551875,54.0002077 L0.06551875,48.8902846 L4.27026875,48.8902846 C6.64283125,48.8902846 7.33101875,47.8078615 7.33101875,45.4841308 L7.33101875,9.88116923 C7.33101875,7.55916923 6.64283125,6.47328462 4.27026875,6.47328462 L0.2948,6.47328462 L0.2948,1.36820769 L16.3568625,1.36820769 L16.3568625,7.71251538 Z" id="Fill-11" fill="#F05B24" mask="url(#mask-2)"></path>
                </g>
                <polygon id="Fill-14" fill="#59853B" points="367 15.5608322 367 15 371 15 371 15.5608322 369.333176 15.5608322 369.333176 20 368.66607 20 368.66607 15.5608322"></polygon>
                <polygon id="Fill-16" fill="#59853B" points="372.733848 15 373.996671 19.2032863 375.270994 15 376 15 376 20 375.494326 20 375.494326 15.8389236 375.482524 15.8389236 374.227871 20 373.773642 20 372.520502 15.8389236 372.50749 15.8389236 372.50749 20 372 20 372 15"></polygon>
                <path d="M81.5,5.5 L81.5,97.0570008" id="Line-Copy-3" stroke="#F15A25" stroke-width="3" stroke-linecap="square"></path>
                <path d="M404.5,0 L404.5,97.0570008" id="Line-Copy-4" stroke="#F15A25" stroke-width="3" stroke-linecap="square"></path>
                <text id="is-what’s-inside" font-family="Superclarendon-Bold, Superclarendon" font-size="31" font-weight="bold" line-spacing="31" fill="#808183">
                    <tspan x="103" y="90">is what’s inside</tspan>
                </text>
            </g>
        </g>
    </g>
</svg>