<?xml version="1.0" encoding="UTF-8"?>
<svg width="78px" height="70px" viewBox="0 0 78 70" version="1.1" xmlns="http://www.w3.org/2000/svg" xmlns:xlink="http://www.w3.org/1999/xlink">
    <!-- Generator: sketchtool 54.1 (76490) - https://sketchapp.com -->
    <title>85BC27E9-1DF0-4B6C-9FDD-5AD971004021</title>
    <desc>Created with sketchtool.</desc>
    <g id="Page-1" stroke="none" stroke-width="1" fill="none" fill-rule="evenodd">
        <g id="home-slide2" transform="translate(-681.000000, -4614.000000)" fill="#FFFFFF" fill-rule="nonzero">
            <g id="learn-more-icon" transform="translate(681.000000, 4614.000000)">
                <path d="M74.953125,45.6521323 L76.4765625,45.6521323 C77.3180238,45.6521323 78,44.9709151 78,44.1303905 L78,38.0434236 C78,37.2034935 77.3180238,36.5216819 76.4765625,36.5216819 L50.8244935,36.5216819 C52.155716,35.0136121 53.8856507,32.6442126 54.8258971,30.7325245 C56.7932739,26.7308193 58.8731232,20.7044843 57.6103363,14.7197594 C56.4891815,9.4103074 52.5562134,5.36877532 47.5901642,4.42363096 C44.8235778,3.89696573 42.8663177,4.73749019 41.2946777,5.41276309 C41.1685181,5.46685629 41.0441437,5.5203551 40.9215545,5.57207058 C41.064972,3.937387 40.8549041,2.37997944 40.2848053,0.956913074 C39.9723815,0.176426044 39.0856934,-0.202820453 38.3049316,0.10925545 C37.5235749,0.421331354 37.1433105,1.30703267 37.4557342,2.08692531 C37.9550171,3.33344575 37.999054,4.6245485 37.8264771,5.80805939 C35.0515594,4.91581945 32.5147583,5.00974367 30.3033141,4.73570702 C27.7848964,4.42363096 25.9315643,6.57546888 26,7.41302138 C26.0684357,8.25057372 29.4660187,7.48138091 30.3033141,7.41302138 C31.3881683,7.32504568 32.8271027,7.75600766 34.1160736,7.99259102 C33.4793244,8.00923492 32.8955384,8.42533633 32.6985627,9.06732112 C32.4521942,9.87039643 32.9044647,10.7216207 33.7090301,10.967715 C34.5463257,11.2239143 35.2925719,11.3321007 35.9662171,11.3321007 C37.3176727,11.3321007 38.371582,10.8957888 39.2636261,10.3518851 C39.2904053,10.3358354 39.3171844,10.3203802 39.3427734,10.3031417 C39.7944489,10.0213818 40.2050628,9.71465575 40.591278,9.42457373 C41.1643524,8.99480054 41.7052917,8.58939896 42.322998,8.28386182 C42.3813171,8.25889583 42.4402313,8.23333528 42.4985505,8.20836913 C43.8720246,7.61869421 45.1693268,7.0611186 47.0194702,7.41302138 C50.7756958,8.12812099 53.7624665,11.2423417 54.6289215,15.3468833 C55.7125854,20.4833562 53.8469696,25.8189632 52.091446,29.3903008 C51.2148743,31.1729974 49.4200745,33.5875736 48.1918031,34.8923483 C47.4163971,35.7162287 46.1381379,36.5050378 45.3014373,36.3439471 C44.753952,36.238733 44.1350555,36.0009609 43.4792633,35.7489224 C42.1885072,35.2537619 40.7263641,34.6926197 38.8899079,34.6926197 C37.0534515,34.6926197 35.5913086,35.2537619 34.3011475,35.7489224 C33.6453551,36.0009609 33.0258636,36.238733 32.4789733,36.3439471 C31.6410827,36.5050378 30.3640137,35.7162287 29.5886078,34.8923483 C28.3597412,33.5875736 26.5649414,31.1729974 25.6889648,29.3908952 C23.4639129,24.8637136 22.5552064,19.4020874 23.3187103,15.1376439 C23.4662933,14.3101968 22.9152375,13.5196045 22.0868683,13.3715914 C21.2590942,13.2241726 20.4670257,13.7746151 20.3188477,14.6020621 C19.4476318,19.4722302 20.4575042,25.6531171 22.9539185,30.7319301 C23.89357,32.6436182 25.6240998,35.0130177 26.9559173,36.5216819 L10.6640625,36.5216819 C4.78395084,36.5216819 0,41.3003076 0,47.173874 L0,59.3478079 C0,65.2213743 4.78395084,70 10.6640625,70 L76.4765625,70 C77.3180238,70 78,69.3187829 78,68.4782583 L78,62.3912913 C78,61.5507667 77.3180238,60.8695496 76.4765625,60.8695496 L74.953125,60.8695496 L74.953125,45.6521323 Z M71.90625,48.6962101 L9.140625,48.6962101 L9.140625,47.173874 C9.140625,46.349399 9.83807373,45.6521323 10.6640625,45.6521323 L71.90625,45.6521323 L71.90625,48.6962101 Z M10.6640625,60.8695496 C9.83807373,60.8695496 9.140625,60.1728772 9.140625,59.3478079 L9.140625,57.8266605 L12.1875,57.8266605 L12.1875,60.8695496 L10.6640625,60.8695496 Z M12.1875,54.7831771 L9.140625,54.7831771 L9.140625,51.7396936 L12.1875,51.7396936 L12.1875,54.7831771 Z M21.3287201,59.5487253 L19.1262817,58.0822657 C18.615097,57.7416569 17.947998,57.7416569 17.4362183,58.0822657 L15.234375,59.5487253 L15.234375,56.5129695 C15.2438965,56.44461 15.2504425,56.375656 15.2504425,56.3049188 C15.2504425,56.2335871 15.2438965,56.1646332 15.234375,56.0962737 L15.234375,51.7390992 L21.328125,51.7390992 L21.328125,59.5487253 L21.3287201,59.5487253 Z M74.953125,66.9565165 L10.6640625,66.9565165 C6.46389778,66.9565165 3.046875,63.5432973 3.046875,59.3478079 L3.046875,47.173874 C3.046875,42.978979 6.46389778,39.5651653 10.6640625,39.5651653 L74.953125,39.5651653 L74.953125,42.6086488 L10.6640625,42.6086488 C8.14384457,42.6086488 6.09375,44.6570559 6.09375,47.173874 L6.09375,59.3478079 C6.09375,61.8652205 8.14384457,63.9130331 10.6640625,63.9130331 L22.8432311,63.9130331 C22.8462067,63.9130331 22.8491821,63.9136275 22.8521576,63.9136275 C22.8557282,63.9136275 22.8592987,63.9130331 22.8628693,63.9130331 L74.953125,63.9130331 L74.953125,66.9565165 Z M24.3755951,60.8695496 L24.3755951,57.8266605 L58.1953125,57.8266605 C59.0361786,57.8266605 59.71875,57.1454434 59.71875,56.3049188 C59.71875,55.4643943 59.0361786,54.7831771 58.1953125,54.7831771 L24.3755951,54.7831771 L24.3755951,51.7396936 L71.90625,51.7396936 L71.90625,54.7831771 L70.3828125,54.7831771 C69.5413512,54.7831771 68.859375,55.4643943 68.859375,56.3049188 C68.859375,57.1454434 69.5413512,57.8266605 70.3828125,57.8266605 L71.90625,57.8266605 L71.90625,60.8695496 L24.3755951,60.8695496 Z" id="Shape"></path>
                <path d="M24.5001601,11 C24.8598539,11 25.2213053,10.8710999 25.5083574,10.6097838 L25.5095291,10.6091979 C26.1222974,10.0519971 26.1668198,9.10340826 25.6097043,8.49054612 C25.0531748,7.87768383 24.1035595,7.83315464 23.490791,8.39035541 C22.8780227,8.94755619 22.8329145,9.89614507 23.3900299,10.5090072 C23.6858694,10.8347734 24.0924289,11 24.5001601,11 Z" id="Path"></path>
                <path d="M64.5002929,55 L64.4991213,55 C63.6707674,55 63,55.6714845 63,56.5 C63,57.3285157 63.6719391,58 64.5002929,58 C65.3286468,58 66,57.3285157 66,56.5 C66,55.6714845 65.328061,55 64.5002929,55 L64.5002929,55 Z" id="Path"></path>
            </g>
        </g>
    </g>
</svg>